<?xml version="1.0" standalone="no"?>
<!DOCTYPE svg PUBLIC "-//W3C//DTD SVG 20010904//EN"
 "http://www.w3.org/TR/2001/REC-SVG-20010904/DTD/svg10.dtd">
<svg version="1.0" xmlns="http://www.w3.org/2000/svg"
 width="512.000000pt" height="512.000000pt" viewBox="0 0 512.000000 512.000000"
 preserveAspectRatio="xMidYMid meet">

<g transform="translate(0.000000,512.000000) scale(0.100000,-0.100000)"
fill="#fff" stroke="none">
<path d="M2330 5110 c-474 -43 -923 -219 -1330 -524 -122 -91 -375 -344 -466
-466 -263 -351 -424 -717 -494 -1120 -124 -711 47 -1402 494 -2000 91 -122
344 -375 466 -466 598 -447 1289 -618 2000 -494 403 70 769 231 1120 494 122
91 375 344 466 466 447 598 618 1289 494 2000 -70 403 -231 769 -494 1120 -91
122 -344 375 -466 466 -535 401 -1151 581 -1790 524z m80 -755 l0 -435 -345 0
-344 0 44 106 c108 257 215 425 369 580 88 88 126 118 185 147 40 20 78 37 82
37 5 0 9 -196 9 -435z m405 392 c81 -42 263 -224 338 -338 73 -110 145 -247
202 -383 l44 -106 -344 0 -345 0 0 436 0 435 23 -6 c12 -4 49 -21 82 -38z
m-1102 -179 c-84 -125 -209 -374 -269 -540 l-39 -108 -324 0 c-307 0 -323 1
-310 18 235 305 571 563 924 708 44 18 83 33 87 34 4 0 -27 -51 -69 -112z
m1702 82 c348 -138 697 -404 934 -712 13 -17 -3 -18 -310 -18 l-324 0 -39 108
c-60 166 -185 415 -269 540 -42 61 -74 112 -72 112 3 0 38 -13 80 -30z m-2100
-1052 c-53 -234 -105 -606 -105 -757 0 -31 -3 -73 -6 -93 l-7 -38 -443 0 -444
0 0 40 c0 22 7 86 15 143 32 212 99 430 191 626 l47 101 379 0 378 0 -5 -22z
m1095 -433 l0 -455 -454 0 -454 0 5 88 c13 260 59 577 114 785 l10 37 389 0
390 0 0 -455z m1089 418 c55 -208 101 -525 114 -785 l5 -88 -454 0 -454 0 0
455 0 455 390 0 389 0 10 -37z m1105 -62 c61 -131 110 -268 146 -410 32 -125
60 -296 60 -361 l0 -40 -444 0 -443 0 -7 38 c-3 20 -6 62 -6 93 0 151 -52 523
-105 757 l-5 22 378 0 379 0 47 -99z m-3400 -1148 c3 -21 6 -63 6 -94 0 -151
52 -523 105 -756 l5 -23 -378 0 -379 0 -47 99 c-61 131 -110 268 -146 410 -32
125 -60 296 -60 361 l0 40 444 0 443 0 7 -37z m1206 -418 l0 -455 -390 0 -389
0 -10 38 c-55 207 -101 524 -114 785 l-5 87 454 0 454 0 0 -455z m1203 368
c-13 -261 -59 -578 -114 -785 l-10 -38 -389 0 -390 0 0 455 0 455 454 0 454 0
-5 -87z m1197 53 c0 -47 -18 -176 -36 -266 -39 -183 -93 -347 -171 -512 l-46
-98 -379 0 -378 0 5 23 c53 233 105 605 105 756 0 31 3 73 6 94 l7 37 443 0
444 0 0 -34z m-3366 -1284 c60 -166 185 -415 269 -539 42 -62 74 -113 72 -113
-13 0 -166 66 -237 101 -294 148 -577 381 -777 642 -13 16 3 17 310 17 l324 0
39 -108z m966 -328 l0 -435 -22 6 c-75 23 -150 76 -254 180 -154 153 -261 322
-369 579 l-44 106 344 0 345 0 0 -436z m963 374 c-120 -297 -276 -538 -436
-675 -68 -59 -153 -112 -204 -128 l-23 -6 0 435 0 436 344 0 345 0 -26 -62z
m940 0 c-169 -216 -441 -438 -715 -582 -85 -45 -246 -116 -263 -116 -2 0 30
50 72 112 85 126 211 380 269 541 l38 107 324 0 323 0 -48 -62z"/>
</g>
</svg>
